# xmcd
#
# Track frame offsets:
#	182
#	15405
#	32655
#	49227
#	62427
#	78030
#	93180
#	113355
#	126030
#	139905
#	160302
#	177855
#	194432
#	210555
#	224880
#	237030
#	255105
#	272277
#	287655
#	300027
#
# Disc length: 4246 seconds
#
# Revision: 1
# Processed by: cddbd v1.5.2PL0 Copyright (c) Steve Scherf et al.
# Submitted via: audiograbber 1.83.01
#
DISCID=fa109414
DTITLE=Various Artist - Farm Safe Volume 9 [Disc 1]
DYEAR=1998
DGENRE=Country
TTITLE0=Lee Kernaghan - Scrub Bashin'
TTITLE1=Gina Jeffreys - Since You Went Away
TTITLE2=Beccy Cole - Rest In Pieces
TTITLE3=Adam Harvey - He Lives My Dream
TTITLE4=Magnificent 7 - Buckle Hits The Floor
TTITLE5=Shanley Del - You Can't Make Everything Okay
TTITLE6=Adam Brand - Here and There
TTITLE7=Diana Woods - Cowboy Man
TTITLE8=Kate Ballantyne - My Heart Breaks
TTITLE9=Fiddle Me Please - Out Of My Hands
TTITLE10=Spencer Band - She'll Be OK
TTITLE11=Felicity - Forever True
TTITLE12=Pixie Jenkins - The Wake
TTITLE13=Crakajak - Carrying The Country
TTITLE14=Jojo Leslie - That's Me
TTITLE15=Michael Bryers - Without You
TTITLE16=The Flood - Bank
TTITLE17=The Blue Heeler Band - Thinking Of You
TTITLE18=The Fargone Beauties - Judgement Day
TTITLE19=TJ Dennis - Long Last Look
EXTD=
EXTT0=
EXTT1=
EXTT2=
EXTT3=
EXTT4=
EXTT5=
EXTT6=
EXTT7=
EXTT8=
EXTT9=
EXTT10=
EXTT11=
EXTT12=
EXTT13=
EXTT14=
EXTT15=
EXTT16=
EXTT17=
EXTT18=
EXTT19=
PLAYORDER=
